<svg xmlns="http://www.w3.org/2000/svg" viewBox="0 0 24 24" fill="#FFFFFF">
  <path d="M19.14,12.94c0.04-0.31,0.06-0.63,0.06-0.94s-0.02-0.63-0.06-0.94l2.03-1.58c0.18-0.14,0.23-0.4,0.12-0.61 l-1.92-3.32c-0.11-0.22-0.37-0.3-0.59-0.22l-2.39,0.96c-0.5-0.38-1.05-0.69-1.66-0.92L14.4,2.81C14.37,2.57,14.17,2.4,13.93,2.4 h-3.85c-0.24,0-0.44,0.17-0.47,0.41L9.24,5.37C8.63,5.6,8.08,5.92,7.58,6.3L5.19,5.34C4.97,5.26,4.71,5.34,4.6,5.56L2.68,8.88 C2.56,9.1,2.62,9.36,2.8,9.5l2.03,1.58C4.79,11.37,4.77,11.69,4.77,12s0.02,0.63,0.06,0.94L2.8,14.52 c-0.18,0.14-0.23,0.4-0.12,0.61l1.92,3.32c0.11,0.22,0.37,0.3,0.59,0.22l2.39-0.96c0.5,0.38,1.05,0.69,1.66,0.92l0.37,2.56 c0.03,0.24,0.23,0.41,0.47,0.41h3.85c0.24,0,0.44-0.17,0.47-0.41l0.37-2.56c0.61-0.23,1.16-0.55,1.66-0.92l2.39,0.96 c0.22,0.09,0.48,0,0.59-0.22l1.92-3.32c0.12-0.22,0.06-0.47-0.12-0.61L19.14,12.94z M12,15.6c-1.99,0-3.6-1.61-3.6-3.6 s1.61-3.6,3.6-3.6s3.6,1.61,3.6,3.6S13.99,15.6,12,15.6z"/>
</svg>
